<svg xmlns="http://www.w3.org/2000/svg" width="32" height="32" viewBox="0 0 234.37501 234.375" version="1.1">
<g transform="translate(0,0)">
  <path
     d="m 224.62233,77.632227 c 0,-49.981956 -32.75565,-64.637165 -32.75565,-64.637165 -32.13861,-14.7580488 -117.498761,-14.6037887 -149.328834,0 0,0 -32.755671,14.655209 -32.755671,64.637165 0,59.494993 -3.3938343,133.388073 54.301388,148.660333 20.825812,5.50213 38.720597,6.68483 53.118687,5.86209 26.12227,-1.43981 40.77748,-9.30734 40.77748,-9.30734 l -0.87417,-18.97464 c 0,0 -18.66611,5.86208 -39.64621,5.19361 -20.774388,-0.71991 -42.680058,-2.26257 -46.073892,-27.76777 -0.308533,-2.26255 -0.462793,-4.62795 -0.462793,-7.14762 44.017035,10.74715 81.554935,4.67939 91.890705,3.44526 28.84761,-3.44526 53.99286,-21.23719 57.18101,-37.48647 5.03933,-25.60804 4.62795,-62.477453 4.62795,-62.477453 z M 186.00459,142.01228 H 162.04205 V 83.288617 c 0,-25.556617 -32.90995,-26.533635 -32.90995,3.548095 V 118.97533 H 105.32383 V 86.836712 c 0,-30.08173 -32.909934,-29.104712 -32.909934,-3.548095 V 142.01228 H 48.39993 c 0,-62.785983 -2.673929,-76.0528 9.461597,-89.988103 13.318238,-14.860888 41.034571,-15.837894 53.375803,3.136734 l 5.96492,10.027244 5.96493,-10.027244 c 12.39265,-19.077481 40.16041,-17.89477 53.3758,-3.136734 12.18696,14.038143 9.46161,27.25354 9.46161,89.988103 z" 
	 fill="#fff" />
</g>
</svg>
