<?xml version="1.0" encoding="UTF-8"?>
<svg
	width="1200pt"
	height="1200pt"
	version="1.1"
	viewBox="0 0 1200 1200"
	xmlns="http://www.w3.org/2000/svg"
>
	<path fill="#ffffff" d="m 78.780466,935.27297 c 24.601654,-24.60165 57.965034,-38.41806 92.752834,-38.41806 34.79328,0.005 68.15666,13.82737 92.75283,38.42355 24.60165,24.60165 38.42355,57.96503 38.42355,92.75824 0,34.7878 -13.8219,68.1512 -38.42355,92.7529 -24.59617,24.6016 -57.95955,38.4235 -92.75283,38.4235 -34.7878,0 -68.15118,-13.8164 -92.752834,-38.4139 -24.618106,-24.5962 -38.445484,-57.9651 -38.445484,-92.7638 0,-34.79876 13.827378,-68.17311 38.445484,-92.7638 z m 984.792834,220.43463 -0.01,-0.01 c -25.5284,0 -50.008,-10.1428 -68.0552,-28.1949 -18.04716,-18.0526 -28.18531,-42.5364 -28.17983,-68.0648 C 967.57922,948.97435 945.52109,839.59741 902.47471,737.85939 839.32612,588.12449 733.36832,460.36588 597.90499,370.59623 462.43891,280.83069 303.49399,233.06276 140.98186,233.2547 115.43699,233.29218 90.931302,223.16534 72.852616,205.11325 54.778042,187.0661 44.624804,162.56589 44.624804,137.02103 c 0,-25.54486 10.153513,-50.039586 28.227812,-68.092225 18.080057,-18.052638 42.584374,-28.174344 68.129244,-28.141441 133.80174,-0.133882 266.30657,26.149455 389.92492,77.346126 123.61012,51.19666 235.89895,126.29306 330.42579,220.99675 94.69684,94.5145 169.80563,206.79374 220.99683,330.41208 51.1912,123.61835 77.475,256.10673 77.3351,389.91118 0.064,25.5174 -10.0304,50.0122 -28.0619,68.0758 -18.0315,18.0636 -42.5049,28.2058 -68.0278,28.1853 z m -424.34945,0 -0.005,-0.01 c -25.52841,0 -50.00805,-10.1428 -68.05521,-28.1949 -18.05264,-18.0526 -28.18531,-42.5364 -28.17983,-68.0648 0.0157,-70.5676 -18.55065,-139.90054 -53.83198,-201.00367 C 453.87186,797.31464 403.11938,746.56764 341.99431,711.29042 280.87472,676.01045 211.5459,657.45331 140.97226,657.47524 c -34.38611,0 -66.159189,-18.34739 -83.354985,-48.12711 -17.190312,-29.77561 -17.190312,-66.46903 0,-96.24464 17.195796,-29.78109 48.968875,-48.12712 83.354985,-48.12712 116.85683,0.0428 231.11435,34.49305 328.50647,99.05645 97.40171,64.56341 173.63051,156.384 219.17339,263.98968 31.06019,73.19078 46.97689,151.9147 46.78907,231.4159 0.005,25.5284 -10.12677,50.0122 -28.17982,68.0648 -18.04716,18.0527 -42.5268,28.1949 -68.05521,28.1949 z" />
</svg>